<svg width="540" height="257" viewBox="0 0 540 257" fill="none" xmlns="http://www.w3.org/2000/svg">
<rect width="540" height="257" rx="8" fill="#141515"/>
<path d="M264.269 73.934C259.49 73.934 255.827 75.4303 253.281 78.423C250.78 81.371 249.529 85.4803 249.529 90.751C249.529 93.2523 249.819 95.5527 250.4 97.652C251.025 99.7067 251.919 101.471 253.08 102.945C254.286 104.419 255.76 105.58 257.502 106.429C259.289 107.233 261.366 107.635 263.733 107.635C265.207 107.635 266.48 107.59 267.552 107.501C268.624 107.367 269.473 107.211 270.098 107.032V90.349H278.54V112.66C277.379 113.107 275.413 113.598 272.644 114.134C269.875 114.67 266.681 114.938 263.063 114.938C259.713 114.938 256.653 114.402 253.884 113.33C251.115 112.258 248.747 110.695 246.782 108.64C244.861 106.585 243.365 104.062 242.293 101.069C241.221 98.0763 240.685 94.637 240.685 90.751C240.685 86.865 241.266 83.4257 242.427 80.433C243.633 77.4403 245.263 74.9167 247.318 72.862C249.373 70.7627 251.785 69.177 254.554 68.105C257.323 67.033 260.271 66.497 263.398 66.497C265.542 66.497 267.44 66.6533 269.093 66.966C270.79 67.234 272.242 67.5467 273.448 67.904C274.654 68.2613 275.637 68.641 276.396 69.043C277.2 69.445 277.758 69.7353 278.071 69.914L275.525 76.815C274.185 76.011 272.51 75.341 270.5 74.805C268.535 74.2243 266.458 73.934 264.269 73.934ZM296.068 114H287.961V78.959H296.068V114ZM296.939 68.708C296.939 70.2267 296.448 71.4327 295.465 72.326C294.483 73.2193 293.321 73.666 291.981 73.666C290.597 73.666 289.413 73.2193 288.43 72.326C287.448 71.4327 286.956 70.2267 286.956 68.708C286.956 67.1447 287.448 65.9163 288.43 65.023C289.413 64.1297 290.597 63.683 291.981 63.683C293.321 63.683 294.483 64.1297 295.465 65.023C296.448 65.9163 296.939 67.1447 296.939 68.708ZM306.009 69.713L314.116 68.373V78.959H326.578V85.726H314.116V99.997C314.116 102.811 314.563 104.821 315.456 106.027C316.349 107.233 317.868 107.836 320.012 107.836C321.486 107.836 322.781 107.68 323.898 107.367C325.059 107.054 325.975 106.764 326.645 106.496L327.985 112.928C327.047 113.33 325.819 113.732 324.3 114.134C322.781 114.581 320.995 114.804 318.94 114.804C316.439 114.804 314.339 114.469 312.642 113.799C310.989 113.129 309.672 112.169 308.689 110.918C307.706 109.623 307.014 108.082 306.612 106.295C306.21 104.464 306.009 102.387 306.009 100.064V69.713ZM334.415 114V63.348L342.522 62.008V79.361C343.415 79.0483 344.443 78.7803 345.604 78.557C346.81 78.3337 347.994 78.222 349.155 78.222C351.969 78.222 354.292 78.624 356.123 79.428C357.999 80.1873 359.495 81.2817 360.612 82.711C361.729 84.0957 362.51 85.7707 362.957 87.736C363.448 89.7013 363.694 91.89 363.694 94.302V114H355.587V95.575C355.587 93.699 355.453 92.1133 355.185 90.818C354.962 89.478 354.56 88.406 353.979 87.602C353.443 86.7533 352.706 86.1503 351.768 85.793C350.83 85.391 349.669 85.19 348.284 85.19C347.212 85.19 346.118 85.3017 345.001 85.525C343.884 85.7483 343.058 85.9493 342.522 86.128V114H334.415ZM402.154 112.928C400.591 113.33 398.558 113.732 396.057 114.134C393.556 114.581 390.809 114.804 387.816 114.804C385.002 114.804 382.635 114.402 380.714 113.598C378.838 112.794 377.319 111.677 376.158 110.248C375.041 108.819 374.237 107.121 373.746 105.156C373.255 103.146 373.009 100.957 373.009 98.59V78.959H381.116V97.317C381.116 101.069 381.652 103.749 382.724 105.357C383.841 106.965 385.761 107.769 388.486 107.769C389.469 107.769 390.496 107.724 391.568 107.635C392.685 107.546 393.511 107.434 394.047 107.3V78.959H402.154V112.928ZM435.721 96.379C435.721 92.9397 435.029 90.215 433.644 88.205C432.304 86.195 430.16 85.19 427.212 85.19C425.872 85.19 424.599 85.391 423.393 85.793C422.232 86.195 421.294 86.6417 420.579 87.133V107.3C421.16 107.434 421.897 107.568 422.79 107.702C423.728 107.791 424.845 107.836 426.14 107.836C429.133 107.836 431.478 106.831 433.175 104.821C434.873 102.766 435.721 99.9523 435.721 96.379ZM444.029 96.513C444.029 99.327 443.605 101.873 442.756 104.151C441.952 106.384 440.769 108.305 439.205 109.913C437.687 111.521 435.833 112.749 433.644 113.598C431.456 114.447 428.977 114.871 426.207 114.871C423.527 114.871 420.959 114.67 418.502 114.268C416.09 113.866 414.08 113.419 412.472 112.928V63.348L420.579 62.008V80.165C421.517 79.6737 422.656 79.227 423.996 78.825C425.381 78.423 426.9 78.222 428.552 78.222C431.009 78.222 433.198 78.6687 435.118 79.562C437.084 80.4107 438.714 81.639 440.009 83.247C441.305 84.855 442.287 86.798 442.957 89.076C443.672 91.3093 444.029 93.7883 444.029 96.513Z" fill="#45E4B4"/>
<path d="M253.549 186.377C260.338 186.377 263.733 184.054 263.733 179.409C263.733 177.98 263.42 176.774 262.795 175.791C262.214 174.764 261.41 173.893 260.383 173.178C259.356 172.419 258.172 171.771 256.832 171.235C255.537 170.699 254.152 170.163 252.678 169.627C250.981 169.046 249.373 168.399 247.854 167.684C246.335 166.925 245.018 166.054 243.901 165.071C242.784 164.044 241.891 162.838 241.221 161.453C240.596 160.068 240.283 158.393 240.283 156.428C240.283 152.363 241.668 149.192 244.437 146.914C247.206 144.636 251.025 143.497 255.894 143.497C258.708 143.497 261.254 143.81 263.532 144.435C265.855 145.016 267.552 145.663 268.624 146.378L266.547 151.671C265.609 151.09 264.202 150.532 262.326 149.996C260.495 149.415 258.351 149.125 255.894 149.125C254.643 149.125 253.482 149.259 252.41 149.527C251.338 149.795 250.4 150.197 249.596 150.733C248.792 151.269 248.144 151.961 247.653 152.81C247.206 153.614 246.983 154.574 246.983 155.691C246.983 156.942 247.229 157.991 247.72 158.84C248.211 159.689 248.904 160.448 249.797 161.118C250.69 161.743 251.718 162.324 252.879 162.86C254.085 163.396 255.403 163.932 256.832 164.468C258.842 165.272 260.673 166.076 262.326 166.88C264.023 167.684 265.475 168.644 266.681 169.761C267.932 170.878 268.892 172.218 269.562 173.781C270.232 175.3 270.567 177.153 270.567 179.342C270.567 183.407 269.071 186.533 266.078 188.722C263.13 190.911 258.954 192.005 253.549 192.005C251.718 192.005 250.02 191.871 248.457 191.603C246.938 191.38 245.576 191.112 244.37 190.799C243.164 190.442 242.114 190.084 241.221 189.727C240.372 189.325 239.702 188.99 239.211 188.722L241.154 183.362C242.181 183.943 243.745 184.59 245.844 185.305C247.943 186.02 250.512 186.377 253.549 186.377ZM276.076 173.647C276.076 170.565 276.523 167.885 277.416 165.607C278.31 163.284 279.493 161.364 280.967 159.845C282.441 158.326 284.139 157.187 286.059 156.428C287.98 155.669 289.945 155.289 291.955 155.289C296.645 155.289 300.241 156.763 302.742 159.711C305.244 162.614 306.494 167.059 306.494 173.044C306.494 173.312 306.494 173.669 306.494 174.116C306.494 174.518 306.472 174.898 306.427 175.255H282.575C282.843 178.873 283.893 181.62 285.724 183.496C287.556 185.372 290.414 186.31 294.3 186.31C296.489 186.31 298.32 186.131 299.794 185.774C301.313 185.372 302.452 184.992 303.211 184.635L304.082 189.861C303.323 190.263 301.983 190.687 300.062 191.134C298.186 191.581 296.042 191.804 293.63 191.804C290.593 191.804 287.958 191.357 285.724 190.464C283.536 189.526 281.727 188.253 280.297 186.645C278.868 185.037 277.796 183.139 277.081 180.95C276.411 178.717 276.076 176.282 276.076 173.647ZM299.995 170.23C300.04 167.416 299.325 165.116 297.851 163.329C296.422 161.498 294.434 160.582 291.888 160.582C290.459 160.582 289.186 160.872 288.069 161.453C286.997 161.989 286.082 162.704 285.322 163.597C284.563 164.49 283.96 165.518 283.513 166.679C283.111 167.84 282.843 169.024 282.709 170.23H299.995ZM327.237 186.511C328.711 186.511 330.006 186.489 331.123 186.444C332.284 186.355 333.245 186.221 334.004 186.042V175.657C333.557 175.434 332.82 175.255 331.793 175.121C330.81 174.942 329.604 174.853 328.175 174.853C327.237 174.853 326.232 174.92 325.16 175.054C324.133 175.188 323.172 175.478 322.279 175.925C321.43 176.327 320.716 176.908 320.135 177.667C319.554 178.382 319.264 179.342 319.264 180.548C319.264 182.781 319.979 184.345 321.408 185.238C322.837 186.087 324.78 186.511 327.237 186.511ZM326.701 155.289C329.202 155.289 331.302 155.624 332.999 156.294C334.741 156.919 336.126 157.835 337.153 159.041C338.225 160.202 338.984 161.609 339.431 163.262C339.878 164.87 340.101 166.657 340.101 168.622V190.397C339.565 190.486 338.806 190.62 337.823 190.799C336.885 190.933 335.813 191.067 334.607 191.201C333.401 191.335 332.083 191.447 330.654 191.536C329.269 191.67 327.885 191.737 326.5 191.737C324.535 191.737 322.726 191.536 321.073 191.134C319.42 190.732 317.991 190.107 316.785 189.258C315.579 188.365 314.641 187.203 313.971 185.774C313.301 184.345 312.966 182.625 312.966 180.615C312.966 178.694 313.346 177.042 314.105 175.657C314.909 174.272 315.981 173.156 317.321 172.307C318.661 171.458 320.224 170.833 322.011 170.431C323.798 170.029 325.674 169.828 327.639 169.828C328.264 169.828 328.912 169.873 329.582 169.962C330.252 170.007 330.877 170.096 331.458 170.23C332.083 170.319 332.619 170.409 333.066 170.498C333.513 170.587 333.825 170.654 334.004 170.699V168.957C334.004 167.93 333.892 166.925 333.669 165.942C333.446 164.915 333.044 164.021 332.463 163.262C331.882 162.458 331.078 161.833 330.051 161.386C329.068 160.895 327.773 160.649 326.165 160.649C324.11 160.649 322.301 160.805 320.738 161.118C319.219 161.386 318.08 161.676 317.321 161.989L316.584 156.83C317.388 156.473 318.728 156.138 320.604 155.825C322.48 155.468 324.512 155.289 326.701 155.289ZM363.314 155.423C363.85 155.423 364.453 155.468 365.123 155.557C365.838 155.602 366.53 155.691 367.2 155.825C367.87 155.914 368.473 156.026 369.009 156.16C369.59 156.249 370.014 156.339 370.282 156.428L369.21 161.855C368.719 161.676 367.892 161.475 366.731 161.252C365.614 160.984 364.163 160.85 362.376 160.85C361.215 160.85 360.053 160.984 358.892 161.252C357.775 161.475 357.038 161.632 356.681 161.721V191H350.45V157.634C351.924 157.098 353.755 156.607 355.944 156.16C358.133 155.669 360.589 155.423 363.314 155.423ZM391.437 191.804C388.623 191.804 386.144 191.357 384 190.464C381.9 189.571 380.114 188.32 378.64 186.712C377.21 185.104 376.138 183.206 375.424 181.017C374.709 178.784 374.352 176.327 374.352 173.647C374.352 170.967 374.731 168.51 375.491 166.277C376.295 164.044 377.411 162.123 378.841 160.515C380.27 158.862 382.012 157.589 384.067 156.696C386.166 155.758 388.489 155.289 391.035 155.289C392.598 155.289 394.161 155.423 395.725 155.691C397.288 155.959 398.784 156.383 400.214 156.964L398.807 162.257C397.869 161.81 396.774 161.453 395.524 161.185C394.318 160.917 393.022 160.783 391.638 160.783C388.154 160.783 385.474 161.877 383.598 164.066C381.766 166.255 380.851 169.448 380.851 173.647C380.851 175.523 381.052 177.243 381.454 178.806C381.9 180.369 382.57 181.709 383.464 182.826C384.402 183.943 385.585 184.814 387.015 185.439C388.444 186.02 390.186 186.31 392.241 186.31C393.893 186.31 395.39 186.154 396.73 185.841C398.07 185.528 399.119 185.193 399.879 184.836L400.75 190.062C400.392 190.285 399.879 190.509 399.209 190.732C398.539 190.911 397.779 191.067 396.931 191.201C396.082 191.38 395.166 191.514 394.184 191.603C393.246 191.737 392.33 191.804 391.437 191.804ZM407.439 191V140.08L413.67 139.008V156.83C414.831 156.383 416.06 156.048 417.355 155.825C418.695 155.557 420.013 155.423 421.308 155.423C424.077 155.423 426.378 155.825 428.209 156.629C430.04 157.388 431.492 158.483 432.564 159.912C433.681 161.297 434.462 162.972 434.909 164.937C435.356 166.902 435.579 169.069 435.579 171.436V191H429.348V172.776C429.348 170.632 429.192 168.801 428.879 167.282C428.611 165.763 428.142 164.535 427.472 163.597C426.802 162.659 425.909 161.989 424.792 161.587C423.675 161.14 422.291 160.917 420.638 160.917C419.968 160.917 419.276 160.962 418.561 161.051C417.846 161.14 417.154 161.252 416.484 161.386C415.859 161.475 415.278 161.587 414.742 161.721C414.251 161.855 413.893 161.967 413.67 162.056V191H407.439ZM443.772 173.647C443.772 170.565 444.219 167.885 445.112 165.607C446.006 163.284 447.189 161.364 448.663 159.845C450.137 158.326 451.835 157.187 453.755 156.428C455.676 155.669 457.641 155.289 459.651 155.289C464.341 155.289 467.937 156.763 470.438 159.711C472.94 162.614 474.19 167.059 474.19 173.044C474.19 173.312 474.19 173.669 474.19 174.116C474.19 174.518 474.168 174.898 474.123 175.255H450.271C450.539 178.873 451.589 181.62 453.42 183.496C455.252 185.372 458.11 186.31 461.996 186.31C464.185 186.31 466.016 186.131 467.49 185.774C469.009 185.372 470.148 184.992 470.907 184.635L471.778 189.861C471.019 190.263 469.679 190.687 467.758 191.134C465.882 191.581 463.738 191.804 461.326 191.804C458.289 191.804 455.654 191.357 453.42 190.464C451.232 189.526 449.423 188.253 447.993 186.645C446.564 185.037 445.492 183.139 444.777 180.95C444.107 178.717 443.772 176.282 443.772 173.647ZM467.691 170.23C467.736 167.416 467.021 165.116 465.547 163.329C464.118 161.498 462.13 160.582 459.584 160.582C458.155 160.582 456.882 160.872 455.765 161.453C454.693 161.989 453.778 162.704 453.018 163.597C452.259 164.49 451.656 165.518 451.209 166.679C450.807 167.84 450.539 169.024 450.405 170.23H467.691ZM496.005 155.423C496.541 155.423 497.144 155.468 497.814 155.557C498.529 155.602 499.221 155.691 499.891 155.825C500.561 155.914 501.164 156.026 501.7 156.16C502.281 156.249 502.705 156.339 502.973 156.428L501.901 161.855C501.41 161.676 500.584 161.475 499.422 161.252C498.306 160.984 496.854 160.85 495.067 160.85C493.906 160.85 492.745 160.984 491.583 161.252C490.467 161.475 489.73 161.632 489.372 161.721V191H483.141V157.634C484.615 157.098 486.447 156.607 488.635 156.16C490.824 155.669 493.281 155.423 496.005 155.423Z" fill="#F5F5F5"/>
<path fill-rule="evenodd" clip-rule="evenodd" d="M141 52C104.535 52 75 81.535 75 118C75 147.205 93.8925 171.873 120.127 180.618C123.427 181.195 124.665 179.215 124.665 177.483C124.665 175.915 124.583 170.718 124.583 165.19C108 168.243 103.71 161.147 102.39 157.435C101.647 155.537 98.43 149.68 95.625 148.112C93.315 146.875 90.015 143.822 95.5425 143.74C100.74 143.657 104.453 148.525 105.69 150.505C111.63 160.487 121.118 157.683 124.913 155.95C125.49 151.66 127.222 148.772 129.12 147.122C114.435 145.472 99.09 139.78 99.09 114.535C99.09 107.357 101.648 101.417 105.855 96.7975C105.195 95.1475 102.885 88.3825 106.515 79.3075C106.515 79.3075 112.043 77.575 124.665 86.0725C129.945 84.5875 135.555 83.845 141.165 83.845C146.775 83.845 152.385 84.5875 157.665 86.0725C170.288 77.4925 175.815 79.3075 175.815 79.3075C179.445 88.3825 177.135 95.1475 176.475 96.7975C180.683 101.417 183.24 107.275 183.24 114.535C183.24 139.862 167.813 145.472 153.128 147.122C155.52 149.185 157.583 153.145 157.583 159.333C157.583 168.16 157.5 175.255 157.5 177.483C157.5 179.215 158.738 181.278 162.038 180.618C188.108 171.873 207 147.122 207 118C207 81.535 177.465 52 141 52Z" fill="#45E4B4"/>
<path d="M140.792 195.667C183.686 195.667 218.458 161.043 218.458 118.333C218.458 75.6233 183.686 41 140.792 41C97.8976 41 63.125 75.6233 63.125 118.333C63.125 161.043 97.8976 195.667 140.792 195.667Z" stroke="#F5F5F5" stroke-width="8" stroke-linecap="round" stroke-linejoin="round"/>
<path d="M237.875 215L195.644 172.95" stroke="#F5F5F5" stroke-width="8" stroke-linecap="round" stroke-linejoin="round"/>
</svg>
